<svg width="280" height="44" viewBox="0 0 280 44" fill="none" xmlns="http://www.w3.org/2000/svg">
<g clip-path="url(#clip0_347_1444)">
<path d="M84.2093 36.4737C80.7544 36.4737 77.9002 35.4925 75.5721 33.4547C73.2437 31.4168 72.1172 28.6241 72.1172 25.0012C72.1172 21.3028 73.2437 18.3591 75.4969 16.2458C77.75 14.1324 80.6791 13.0757 84.1341 13.0757C86.5377 13.0757 88.5654 13.5286 90.2178 14.4343C91.7949 15.34 92.9967 16.5477 93.8229 17.9063C94.5742 19.3403 95.0247 20.8499 95.0247 22.3595C95.0247 25.0012 93.8229 26.2843 91.5698 26.2843H79.102C78.6514 26.2843 78.5013 26.5862 78.5013 27.0391C78.5013 28.2467 79.102 29.1525 80.3787 29.8318C81.6555 30.511 83.0828 30.813 84.7351 30.813C85.7115 30.813 86.6879 30.7375 87.7392 30.4356C88.7156 30.1337 89.617 29.7563 90.3679 29.1525C90.8185 28.8506 91.3443 28.6241 91.9454 28.6241C92.6963 28.6241 93.2971 28.926 93.8229 29.4544C94.3487 30.0582 94.6491 30.662 94.6491 31.4168C94.6491 32.3225 94.1232 33.2282 93.2221 33.983C92.3207 34.7379 90.969 35.3415 89.2414 35.7946C87.5141 36.2474 85.8617 36.4737 84.2093 36.4737ZM88.1148 21.9066C88.1897 21.9066 88.3403 21.9066 88.4905 21.8311C88.6406 21.8311 88.7908 21.6047 88.7908 21.3028C88.7908 20.548 88.265 19.8687 87.3639 19.2649C86.4624 18.6611 85.2606 18.2837 83.8337 18.2837C82.2566 18.2837 80.9795 18.6611 80.0031 19.3403C79.0267 20.0196 78.5762 20.6989 78.5762 21.3782C78.5762 21.7556 78.7264 21.9066 79.1769 21.9066H88.1148Z" fill="white"/>
<path d="M117.611 36.4737C116.635 36.4737 115.809 36.2474 115.208 35.6436C114.607 35.1152 114.306 34.4359 114.306 33.5302V24.3219C114.306 22.5104 113.856 21.1518 113.03 20.3215C112.203 19.5668 111.227 19.1139 110.026 19.1139C108.748 19.1139 107.697 19.5668 106.871 20.3215C106.045 21.1518 105.519 22.0575 105.369 23.1142V33.2282C105.369 34.134 104.993 34.8131 104.392 35.417C103.792 36.0209 103.04 36.2474 102.139 36.2474C101.163 36.2474 100.337 36.0209 99.7357 35.417C99.06 34.8886 98.7593 34.2095 98.7593 33.3037V16.3967C98.7593 15.642 99.06 14.9626 99.6607 14.3588C100.261 13.755 101.088 13.4531 102.139 13.4531C102.89 13.4531 103.566 13.6795 104.167 14.1324C104.693 14.5853 105.068 15.1136 105.294 15.7174C106.646 13.9814 108.674 13.0757 111.452 13.0757C114.231 13.0757 116.485 13.906 118.287 15.5665C120.015 17.227 120.916 19.8687 120.916 23.4916V33.6811C120.916 34.5114 120.54 35.1907 119.939 35.7191C119.339 36.2474 118.513 36.4737 117.611 36.4737Z" fill="white"/>
<path d="M135.42 36.4738C132.041 36.4738 129.337 35.4171 127.309 33.3038C125.281 31.1904 124.305 28.3223 124.305 24.6994C124.305 21.1519 125.281 18.3592 127.234 16.2458C129.187 14.1325 131.891 13.0758 135.195 13.0758C137.298 13.0758 139.251 13.906 140.978 15.4156V7.77352C140.978 6.94327 141.279 6.26394 141.88 5.66014C142.481 5.05633 143.231 4.75439 144.208 4.75439C145.185 4.75439 146.011 5.05633 146.611 5.66014C147.212 6.26394 147.588 6.94327 147.588 7.69803V33.5303C147.588 34.436 147.212 35.1153 146.611 35.6436C146.011 36.2475 145.185 36.4738 144.208 36.4738C142.556 36.4738 141.579 35.7947 141.129 34.3605C139.551 35.7947 137.674 36.4738 135.42 36.4738ZM135.946 30.3602C137.448 30.3602 138.65 29.8318 139.551 28.7751C140.453 27.7184 140.978 26.3599 140.978 24.6994C140.978 23.0389 140.453 21.7557 139.551 20.699C138.65 19.7178 137.448 19.1895 135.946 19.1895C134.369 19.1895 133.092 19.7178 132.191 20.699C131.289 21.7557 130.839 23.0389 130.839 24.6994C130.839 26.3599 131.289 27.7184 132.191 28.7751C133.092 29.8318 134.369 30.3602 135.946 30.3602Z" fill="white"/>
<path d="M162.852 36.4737C160.674 36.4737 158.721 36.0209 156.918 34.9642C155.116 33.983 153.614 32.6244 152.562 30.813C151.511 29.0015 150.985 26.9636 150.985 24.6993C150.985 22.4349 151.511 20.397 152.562 18.6611C153.614 16.9251 155.116 15.5665 156.918 14.5853C158.721 13.604 160.674 13.0757 162.852 13.0757C165.03 13.0757 166.983 13.604 168.785 14.5853C170.588 15.5665 172.015 16.9251 173.066 18.6611C174.118 20.397 174.644 22.4349 174.644 24.6993C174.644 26.9636 174.118 29.0015 173.066 30.813C172.015 32.6244 170.588 33.983 168.785 34.9642C166.983 36.0209 165.03 36.4737 162.852 36.4737ZM162.852 30.3601C164.354 30.3601 165.631 29.8318 166.607 28.7751C167.584 27.7184 168.109 26.3598 168.109 24.6993C168.109 23.0388 167.584 21.7556 166.607 20.6989C165.631 19.7177 164.354 19.1894 162.852 19.1894C161.35 19.1894 160.073 19.7177 159.021 20.6989C157.97 21.7556 157.519 23.0388 157.519 24.6993C157.519 26.3598 157.97 27.7184 159.021 28.7751C160.073 29.8318 161.35 30.3601 162.852 30.3601Z" fill="white"/>
<path d="M181.814 36.2474C180.837 36.2474 180.011 36.0209 179.41 35.417C178.734 34.8886 178.434 34.2095 178.434 33.3037V16.3967C178.434 15.642 178.734 14.9626 179.335 14.3588C179.936 13.755 180.762 13.4531 181.814 13.4531C182.715 13.4531 183.391 13.755 183.992 14.2833C184.593 14.8117 184.893 15.4155 185.044 16.1703C185.569 15.34 186.32 14.5853 187.297 13.9814C188.198 13.3776 189.249 13.0757 190.301 13.0757C190.902 13.0757 191.578 13.1512 192.179 13.3021C192.855 13.5286 193.455 13.906 193.906 14.5098C194.357 15.1136 194.582 15.7174 194.582 16.4722C194.582 17.5289 194.207 18.4346 193.531 19.1139C192.855 19.7932 192.103 20.0196 191.202 19.7932C190.526 19.6423 189.85 19.5668 189.249 19.5668C188.048 19.5668 187.147 20.0196 186.395 20.7744C185.644 21.6047 185.194 23.2652 185.044 25.6805V33.2282C185.044 34.134 184.668 34.8131 184.067 35.417C183.466 36.0209 182.715 36.2474 181.814 36.2474Z" fill="white"/>
<path d="M205.005 36.4737C201.55 36.4737 198.771 35.7946 196.593 34.3604C196.142 34.0585 195.766 33.7566 195.616 33.3037C195.391 32.8509 195.316 32.4735 195.316 32.0206C195.316 31.1903 195.541 30.4356 196.142 29.6808C196.743 29.0015 197.419 28.6241 198.32 28.6241C198.696 28.6241 199.071 28.7751 199.522 28.926C200.423 29.3789 201.4 29.6808 202.601 29.9827C203.728 30.2846 204.779 30.3601 205.756 30.3601C207.558 30.3601 208.535 29.9827 208.535 29.077C208.535 28.6241 208.309 28.1713 207.859 27.7939C207.408 27.4165 206.356 27.1146 204.704 26.9636C204.028 26.9636 203.202 26.8127 202.151 26.6617C201.099 26.5107 200.123 26.2843 199.146 25.8314C198.095 25.3786 197.269 24.7748 196.593 23.869C195.917 23.0388 195.616 21.9066 195.616 20.397C195.616 18.1327 196.442 16.3967 198.17 15.0381C199.822 13.755 202.151 13.0757 205.005 13.0757C206.657 13.0757 208.159 13.3021 209.661 13.604C211.163 13.9814 212.29 14.5098 213.041 15.1891C213.717 15.8684 214.092 16.6232 214.092 17.4534C214.092 18.2082 213.792 18.8875 213.266 19.4913C212.666 20.0951 211.99 20.397 211.163 20.397C210.713 20.397 210.262 20.3215 209.887 20.0951C209.286 19.7177 208.46 19.4158 207.558 19.1894C206.657 19.0384 205.68 18.8875 204.779 18.8875C202.827 18.8875 201.925 19.3403 201.925 20.0951C201.925 20.4725 202.075 20.7744 202.451 21.0763C202.827 21.3782 203.728 21.6047 205.08 21.7556C205.906 21.9066 206.882 22.0575 208.009 22.2085C209.06 22.3595 210.112 22.6614 211.163 23.1142C212.215 23.5671 213.041 24.2464 213.792 25.1521C214.468 26.1334 214.844 27.4165 214.844 29.077C214.844 31.3413 213.942 33.1528 212.14 34.5114C210.337 35.8698 207.934 36.4737 205.005 36.4737Z" fill="white"/>
<path d="M227.614 36.4734C225.436 36.4734 223.634 35.8695 222.282 34.5865C220.855 33.3789 220.179 31.4165 220.179 28.7747V20.6232C220.179 20.1703 219.878 19.8684 219.428 19.8684H218.301C217.4 19.8684 216.724 19.6419 216.273 19.0381C215.823 18.5098 215.597 17.8305 215.597 16.9247C215.597 16.019 215.823 15.3397 216.273 14.7359C216.724 14.1321 217.4 13.8302 218.301 13.8302H219.428C219.878 13.8302 220.179 13.6037 220.179 13.0754V7.72593C220.179 6.89569 220.479 6.14089 221.08 5.53709C221.681 4.93325 222.432 4.63135 223.409 4.63135C224.31 4.63135 225.136 4.93325 225.737 5.53709C226.338 6.14089 226.713 6.82019 226.713 7.72593V13.0754C226.713 13.6037 226.938 13.8302 227.464 13.8302H230.243C231.069 13.8302 231.745 14.1321 232.346 14.7359C232.947 15.3397 233.248 16.0945 233.248 16.9247C233.248 17.8305 232.947 18.5098 232.346 19.0381C231.745 19.6419 231.069 19.8684 230.168 19.8684H227.464C226.938 19.8684 226.713 20.1703 226.713 20.6232V27.718C226.713 28.6238 226.863 29.3031 227.164 29.605C227.464 29.9824 227.915 30.1333 228.441 30.1333C228.591 30.1333 229.041 30.1333 229.642 29.9824C230.243 29.8314 230.619 29.756 230.769 29.756C231.52 29.756 232.196 30.0579 232.797 30.6617C233.322 31.2655 233.623 32.0203 233.623 32.8506C233.623 33.5299 233.398 34.1337 233.022 34.6621C232.646 35.2659 232.046 35.6432 231.295 35.8695C230.619 36.0961 230.018 36.2471 229.417 36.3226C228.816 36.4734 228.215 36.4734 227.614 36.4734Z" fill="white"/>
<path d="M246.382 36.4737C243.002 36.4737 240.298 35.417 238.196 33.3037C236.093 31.1903 235.116 28.3222 235.116 24.6993C235.116 21.1518 236.093 18.3591 238.12 16.2458C240.148 14.1324 242.852 13.0757 246.157 13.0757C248.485 13.0757 250.513 13.906 252.316 15.5665C252.466 14.9626 252.841 14.5098 253.442 14.0569C253.968 13.6795 254.644 13.4531 255.395 13.4531C256.371 13.4531 257.198 13.755 257.798 14.3588C258.399 14.9626 258.775 15.642 258.775 16.3967V33.5302C258.775 34.4359 258.399 35.1152 257.798 35.6436C257.198 36.2474 256.371 36.4737 255.395 36.4737C253.743 36.4737 252.691 35.7946 252.316 34.2849C250.663 35.7946 248.711 36.4737 246.382 36.4737ZM246.908 30.3601C248.485 30.3601 249.762 29.8318 250.738 28.7751C251.64 27.7184 252.165 26.3598 252.165 24.6993C252.165 23.0388 251.64 21.7556 250.738 20.6989C249.762 19.7177 248.485 19.1894 246.908 19.1894C245.331 19.1894 244.054 19.7177 243.077 20.6989C242.101 21.7556 241.65 23.0388 241.65 24.6993C241.65 26.3598 242.101 27.7184 243.077 28.7751C244.054 29.8318 245.331 30.3601 246.908 30.3601Z" fill="white"/>
<path d="M267.045 36.2474C266.069 36.2474 265.243 36.0209 264.642 35.417C263.966 34.8886 263.666 34.2095 263.666 33.3037V16.3967C263.666 15.642 263.966 14.9626 264.567 14.3588C265.168 13.755 265.994 13.4531 267.045 13.4531C267.947 13.4531 268.623 13.755 269.224 14.2833C269.824 14.8117 270.125 15.4155 270.275 16.1703C270.801 15.34 271.552 14.5853 272.528 13.9814C273.43 13.3776 274.481 13.0757 275.533 13.0757C276.134 13.0757 276.81 13.1512 277.41 13.3021C278.086 13.5286 278.687 13.906 279.138 14.5098C279.588 15.1136 279.814 15.7174 279.814 16.4722C279.814 17.5289 279.438 18.4346 278.762 19.1139C278.086 19.7932 277.335 20.0196 276.434 19.7932C275.758 19.6423 275.082 19.5668 274.481 19.5668C273.279 19.5668 272.378 20.0196 271.627 20.7744C270.876 21.6047 270.425 23.2652 270.275 25.6805V33.2282C270.275 34.134 269.9 34.8131 269.299 35.417C268.698 36.0209 267.947 36.2474 267.045 36.2474Z" fill="white"/>
<path fill-rule="evenodd" clip-rule="evenodd" d="M54.3735 16.3378C54.186 16.4549 53.9951 16.5723 53.8007 16.6901C52.9656 13.2912 51.3463 10.2041 49.1481 7.63514C45.351 8.12105 38.8551 9.75639 33.8471 11.0171L33.844 11.0179C33.1626 11.1895 32.5088 11.3541 31.893 11.5079C27.6822 12.5599 27.1513 9.85444 44.0732 3.2697C40.745 1.19643 36.8226 0 32.6232 0C21.0635 0 11.6036 9.06553 10.8538 20.5307C9.97421 21.0242 9.1406 21.5167 8.35712 22.0059C5.76248 23.6256 3.60368 25.2784 2.15256 26.8859C0.851458 28.3273 -0.551242 30.487 0.220193 32.8211C0.991628 35.1553 3.3988 36.0346 5.29725 36.4005C7.41465 36.8089 10.1251 36.8252 13.1646 36.5515C14.065 36.4705 15.006 36.3627 15.9831 36.229C19.985 40.9831 25.9547 44 32.6232 44C41.8277 44 49.7009 38.2523 52.9055 30.1223C35.0521 34.3859 31.7946 33.1054 36.343 31.3263C37.4938 30.8762 38.7688 30.369 40.1039 29.8263C44.9429 28.013 49.3428 26.0398 53.0377 24.0629C53.527 23.8092 53.9837 23.5632 54.4015 23.3272L54.4022 23.3147C55.2591 22.833 56.0718 22.3522 56.8365 21.8747C59.4311 20.2549 61.59 18.6021 63.0411 16.9946C64.3423 15.5533 65.7451 13.3935 64.9735 11.0594C64.2022 8.72537 61.7951 7.846 59.8965 7.47993C58.4354 7.19826 56.6922 7.10312 54.7533 7.16112C54.2275 7.17685 54.1746 7.83557 54.6873 7.95427C56.3276 8.33402 57.8523 8.74045 59.2754 9.555C60.2532 10.1146 60.2425 11.5604 59.5806 12.2934C58.5497 13.4356 56.8051 14.8197 54.3735 16.3378ZM10.9168 24.2308C11.1312 26.378 11.6518 28.4341 12.4339 30.354C9.73599 30.579 7.62477 30.5204 6.17609 30.2411C5.13229 30.0398 5.00257 28.9141 5.60021 28.2521C6.63134 27.1098 7.97237 26.0647 10.4041 24.5466C10.5723 24.4416 10.7432 24.3363 10.9168 24.2308ZM24.9702 20.1253C25.3488 19.0865 26.7957 19.0865 27.1742 20.1253L28.7409 24.4247C28.86 24.7513 29.1135 25.0088 29.4351 25.1296L33.6692 26.7206C34.6924 27.1049 34.6924 28.5742 33.6692 28.9585L29.4351 30.5494C29.1135 30.6703 28.86 30.9278 28.7409 31.2544L27.1742 35.5537C26.7957 36.5924 25.3488 36.5924 24.9702 35.5537L23.4035 31.2544C23.2845 30.9278 23.0309 30.6703 22.7092 30.5494L18.4752 28.9585C17.4522 28.5742 17.4522 27.1049 18.4752 26.7206L22.7092 25.1296C23.0309 25.0088 23.2845 24.7513 23.4035 24.4247L24.9702 20.1253Z" fill="white"/>
</g>
<defs>
<clipPath id="clip0_347_1444">
<rect width="280" height="44" fill="white"/>
</clipPath>
</defs>
</svg>
