<svg width="50" height="50" viewBox="0 0 50 50" fill="none" xmlns="http://www.w3.org/2000/svg">
<path d="M28.0807 17.6982H7.54224C4.22853 17.6982 1.54224 20.3845 1.54224 23.6982V34.7752C1.54224 38.0889 4.22853 40.7752 7.54224 40.7752H22.6579C23.6711 40.7752 24.6465 41.1596 25.3872 41.851L28.3215 44.5896C28.9607 45.1862 30.0038 44.733 30.0038 43.8586V31.1598" stroke="#F16122" stroke-width="2" stroke-linecap="round"/>
<path d="M42.4653 3.85547H26.0038C22.6901 3.85547 20.0038 6.54176 20.0038 9.85547V17.317V29.7424C20.0038 30.5994 21.0111 31.0593 21.6587 30.4981L24.6454 27.9096C25.3727 27.2793 26.3028 26.9324 27.2651 26.9324H42.4653C45.779 26.9324 48.4653 24.2461 48.4653 20.9324V9.85547C48.4653 6.54176 45.779 3.85547 42.4653 3.85547Z" fill="white" stroke="#F16122" stroke-width="2" stroke-linecap="round"/>
<circle cx="10.3865" cy="28.857" r="1.15385" fill="#F16122"/>
<circle cx="14.2373" cy="28.857" r="1.15385" fill="#F16122"/>
<path d="M31.5459 12.0571V12.0571C31.5459 10.6028 32.7248 9.42383 34.1791 9.42383H34.4828C35.8347 9.42383 36.9305 10.5197 36.9305 11.8715V11.8715C36.9305 12.5207 36.6726 13.1432 36.2136 13.6023L35.3261 14.4898C34.6295 15.1864 34.2382 16.1311 34.2382 17.1161V17.1161" stroke="#F16122" stroke-width="2" stroke-linecap="round"/>
<circle cx="34.2378" cy="20.2017" r="1.15385" fill="#F16122"/>
</svg>
